<?xml version="1.0" encoding="UTF-8"?>
<svg version="1.1" xmlns="http://www.w3.org/2000/svg" width="1254" height="1254">
<path d="M0 0 C3.25414946 1.62707473 5.04205713 2.76188206 7.625 5.125 C11.6274862 8.72723758 15.82119126 12.02558186 20.09375 15.30078125 C21.03734375 16.14189453 21.03734375 16.14189453 22 17 C22 17.66 22 18.32 22 19 C22.556875 19.2475 23.11375 19.495 23.6875 19.75 C26.42410913 21.22924818 28.67650869 22.93467439 31 25 C31 25.66 31 26.32 31 27 C31.55429687 27.23589844 32.10859375 27.47179687 32.6796875 27.71484375 C35.56447242 29.3126455 37.71172032 31.31851009 40.125 33.5625 C43.31507509 36.63719186 43.31507509 36.63719186 47 39 C47 39.66 47 40.32 47 41 C47.54140625 41.22300781 48.0828125 41.44601562 48.640625 41.67578125 C51.74975631 43.42080694 54.1785332 45.75313457 56.75 48.1875 C57.82488262 49.18948716 58.90040352 50.19079005 59.9765625 51.19140625 C60.49637695 51.67625488 61.01619141 52.16110352 61.55175781 52.66064453 C63.98934987 54.91496517 66.49975473 57.08277485 69.0078125 59.2578125 C71.36020635 61.31500399 73.68034966 63.40596915 76 65.5 C83.36150819 72.34308985 83.36150819 72.34308985 91.2265625 78.5703125 C91.81179688 79.04210937 92.39703125 79.51390625 93 80 C93 80.66 93 81.32 93 82 C93.556875 82.2475 94.11375 82.495 94.6875 82.75 C97.42410913 84.22924818 99.67650869 85.93467439 102 88 C102 88.66 102 89.32 102 90 C102.556875 90.2475 103.11375 90.495 103.6875 90.75 C106.42410913 92.22924818 108.67650869 93.93467439 111 96 C111 96.66 111 97.32 111 98 C111.56589844 98.24621094 112.13179688 98.49242187 112.71484375 98.74609375 C115.39248258 100.21536224 117.33043612 101.97752435 119.5625 104.0625 C123.05918953 107.27291085 126.60799393 110.34456239 130.3125 113.3125 C135.76953012 117.72604702 140.8880465 122.44503431 146.015625 127.23046875 C148.28477856 129.34632022 150.58618049 131.41275264 152.9375 133.4375 C157.4997278 137.37180828 161.87103556 141.51421221 166.25366211 145.64624023 C166.83768799 146.19352783 167.42171387 146.74081543 168.0234375 147.3046875 C168.54856934 147.79952637 169.07370117 148.29436523 169.61474609 148.80419922 C171.00930819 150.10712552 171.00930819 150.10712552 173 151 C173 151.66 173 152.32 173 153 C173.556875 153.2475 174.11375 153.495 174.6875 153.75 C177.42410913 155.22924818 179.67650869 156.93467439 182 159 C182 159.66 182 160.32 182 161 C182.56589844 161.24621094 183.13179687 161.49242187 183.71484375 161.74609375 C186.39248258 163.21536224 188.33043612 164.97752435 190.5625 167.0625 C194.05918953 170.27291085 197.60799393 173.34456239 201.3125 176.3125 C206.29029066 180.32593235 210.96890568 184.59558447 215.58520508 189.01489258 C218.22693578 191.51175816 220.60300592 193.63301684 224 195 C224.45375 194.505 224.9075 194.01 225.375 193.5 C227 192 227 192 229 192 C229 191.34 229 190.68 229 190 C230.2578125 188.765625 230.2578125 188.765625 232.125 187.25 C237.14614063 183.01454144 241.68706489 178.34070942 246.25048828 173.62402344 C247.12809814 172.72925293 247.12809814 172.72925293 248.0234375 171.81640625 C248.54856934 171.27443604 249.07370117 170.73246582 249.61474609 170.17407227 C251 169 251 169 253 169 C253 168.34 253 167.68 253 167 C254.43359375 165.58984375 254.43359375 165.58984375 256.4375 163.9375 C260.58961788 160.42929345 264.35807233 156.64549595 268.1171875 152.72265625 C270 151 270 151 272 151 C272.2475 150.38125 272.495 149.7625 272.75 149.125 C274.20628639 146.64931313 275.37812506 146.04874998 278 145 C278 144.34 278 143.68 278 143 C279.22265625 141.80078125 279.22265625 141.80078125 281.0625 140.3125 C286.33639313 135.86532525 291.09655011 130.92759803 295.89477539 125.97973633 C296.52504639 125.3380249 297.15531738 124.69631348 297.8046875 124.03515625 C298.65522705 123.15935913 298.65522705 123.15935913 299.52294922 122.26586914 C301 121 301 121 303 121 C303 120.34 303 119.68 303 119 C303.66 119 304.32 119 305 119 C305.38671875 118.10667969 305.38671875 118.10667969 305.78125 117.1953125 C307.10811394 114.8052563 308.39109343 113.59496888 310.5 111.875 C314.91801337 108.1609558 318.89763184 104.09704185 322.8984375 99.94140625 C325 98 325 98 327 98 C327.3403125 97.13375 327.3403125 97.13375 327.6875 96.25 C329.32916107 93.43572387 331.43559053 91.97262267 334 90 C334.33 89.34 334.66 88.68 335 88 C335.66 88 336.32 88 337 88 C337 87.34 337 86.68 337 86 C338.36328125 84.66015625 338.36328125 84.66015625 340.3125 83.0625 C344.57534743 79.4631011 348.4615561 75.5813202 352.31762695 71.55688477 C353.50909296 70.33509286 354.75093864 69.16284669 356 68 C356.66 68 357.32 68 358 68 C358.21914063 67.443125 358.43828125 66.88625 358.6640625 66.3125 C360.43900429 63.24008615 362.71460775 61.34617269 365.375 59 C370.51147569 54.42540022 375.40017532 49.66917963 380.16552734 44.70898438 C381.40785887 43.43666117 382.69992626 42.21326099 384 41 C384.66 41 385.32 41 386 41 C386 40.34 386 39.68 386 39 C387.875 36.875 387.875 36.875 390 35 C390.66 35 391.32 35 392 35 C392 34.34 392 33.68 392 33 C393.36328125 31.66015625 393.36328125 31.66015625 395.3125 30.0625 C399.57534743 26.4631011 403.4615561 22.5813202 407.31762695 18.55688477 C408.50909296 17.33509286 409.75093864 16.16284669 411 15 C411.66 15 412.32 15 413 15 C413.268125 14.38125 413.53625 13.7625 413.8125 13.125 C415 11 415 11 418 9 C421.14266968 8.73930359 421.14266968 8.73930359 425.07568359 8.7253418 C426.15227989 8.7176754 426.15227989 8.7176754 427.25062561 8.70985413 C429.63331387 8.69591758 432.01571318 8.69692153 434.3984375 8.69921875 C436.07020168 8.69532673 437.74196487 8.69099102 439.41372681 8.68623352 C442.93275128 8.67875734 446.45167556 8.67906735 449.97070312 8.68432617 C453.54147063 8.68891781 457.1118945 8.68219993 460.68261719 8.66381836 C499.23408431 8.46680764 499.23408431 8.46680764 516 12 C516.73688049 12.15414368 517.47376099 12.30828735 518.23297119 12.46710205 C547.56543779 18.73651964 573.43173307 33.30142125 595 54 C596.44632813 55.35158203 596.44632813 55.35158203 597.921875 56.73046875 C605.37414204 63.82283191 611.2708543 71.47841098 617 80 C617.55171875 80.76699219 618.1034375 81.53398437 618.671875 82.32421875 C636.74598562 107.83203615 644.59557156 140.3672702 644.44604492 171.20361328 C644.4375256 173.86699728 644.46646482 176.52823113 644.49804688 179.19140625 C644.65415579 217.66274459 629.08330998 256.64875935 603.46875 285.20703125 C600.94664101 287.9333146 600.94664101 287.9333146 599 291 C599.5775 291.62648438 600.155 292.25296875 600.75 292.8984375 C601.4925 293.71570313 602.235 294.53296875 603 295.375 C603.7425 296.18710937 604.485 296.99921875 605.25 297.8359375 C607 300 607 300 607 302 C607.99 302.33 608.98 302.66 610 303 C633.31639865 330.62550523 644.60922934 367.36227968 644.44604492 402.98266602 C644.43753854 405.79973709 644.46642416 408.61476798 644.49804688 411.43164062 C644.55802343 427.41308512 642.22219378 442.85563805 637 458 C636.68804688 459.00160156 636.37609375 460.00320313 636.0546875 461.03515625 C629.36115409 481.420008 617.565612 498.60330375 604 515 C603.48953125 515.63421875 602.9790625 516.2684375 602.453125 516.921875 C598.71188 521.46768882 594.51337141 525.23361515 590 529 C589.19820312 529.68964844 588.39640625 530.37929688 587.5703125 531.08984375 C555.37185463 558.27222139 518.99782423 568.36806701 477.44946289 568.22705078 C475.10245265 568.22648567 472.75544205 568.22680518 470.40843201 568.22793579 C464.07891214 568.22850639 457.74946906 568.21679977 451.41996694 568.20278788 C445.46268321 568.19150603 439.50540219 568.18953691 433.54810923 568.18748413 C421.76000444 568.18312272 409.97192756 568.16985612 398.18383789 568.15087891 C386.74275857 568.13247965 375.30168686 568.11834303 363.8605957 568.10986328 C362.80014956 568.10907511 362.80014956 568.10907511 361.71828026 568.10827102 C358.17113087 568.10566067 354.62398142 568.10313332 351.07683194 568.10064721 C321.71786999 568.07996317 292.35893529 568.04463015 263 568 C262.97687846 555.63081285 262.95908588 543.26163081 262.94818783 530.89242649 C262.94295859 525.14954938 262.9358602 519.40668699 262.92456055 513.66381836 C262.91373313 508.12660005 262.90772348 502.58939596 262.90512276 497.05216789 C262.90326824 494.93455723 262.89964714 492.81694738 262.89426994 490.69934273 C262.88706144 487.74428726 262.88600898 484.78929129 262.88647461 481.83422852 C262.88287933 480.94950363 262.87928406 480.06477875 262.87557983 479.15324402 C262.88594784 473.11405216 262.88594784 473.11405216 264 472 C266.96476806 471.90069205 269.90639265 471.86736027 272.87162781 471.87542725 C274.28529411 471.87331202 274.28529411 471.87331202 275.72751933 471.87115407 C278.91170398 471.86748016 282.09584466 471.87084664 285.2800293 471.87402344 C287.55299922 471.87262959 289.82596888 471.87073088 292.09893799 471.86836243 C297.00878292 471.86385405 301.91861947 471.86200909 306.82846642 471.86190033 C314.59935508 471.86076222 322.37019598 471.84793831 330.1410675 471.83233643 C332.13119652 471.82842951 334.12132553 471.8245226 336.11145455 471.8206165 C337.45191897 471.81798046 338.79238337 471.81533449 340.13284775 471.81267868 C347.70680833 471.79771974 355.28077069 471.78410428 362.85473633 471.77197266 C363.54731172 471.7708591 364.23988712 471.76974553 364.95344964 471.76859823 C376.14719349 471.75106777 387.34090114 471.74815092 398.53465643 471.74982306 C410.03609016 471.75110553 421.53736731 471.73293874 433.03875285 471.69880509 C439.49248318 471.6803758 445.94594355 471.67097542 452.39969444 471.68328094 C458.48106131 471.69476236 464.56194647 471.68290879 470.64324951 471.65364647 C472.86752771 471.64703391 475.09185039 471.64882425 477.31611061 471.65994453 C494.56395346 471.73897249 507.74683427 469.64572732 522 459 C522.55300781 458.43539063 523.10601563 457.87078125 523.67578125 457.2890625 C525 456 525 456 527 456 C527.226875 455.46375 527.45375 454.9275 527.6875 454.375 C529.07385476 451.86635806 530.79063685 449.86395665 532.640625 447.6875 C537.45347079 441.71293281 540.38580435 435.16483252 543 428 C543.5878125 426.453125 543.5878125 426.453125 544.1875 424.875 C547.43328911 413.38990007 547.19138133 399.45261528 544 388 C543.81695313 387.27941406 543.63390625 386.55882812 543.4453125 385.81640625 C541.71573663 379.82694909 538.68665539 374.79016806 535.42578125 369.50390625 C534 367 534 367 534 365 C533.34 365 532.68 365 532 365 C530.58984375 363.49609375 530.58984375 363.49609375 528.9375 361.4375 C520.50099282 351.59490829 507.77391502 342.84698192 494.51278877 341.80447006 C491.52616068 341.71466377 488.54486737 341.68724436 485.55688477 341.68115234 C484.42444839 341.67110672 483.29201202 341.6610611 482.1252594 341.65071106 C478.39731332 341.6199205 474.66943893 341.60285512 470.94140625 341.5859375 C468.35065598 341.56722257 465.75991177 341.54764891 463.16917419 341.5272522 C457.05663737 341.48119684 450.94410406 341.44377633 444.83148569 341.41057932 C437.86888393 341.37228128 430.90637445 341.32289141 423.94385064 341.27259517 C409.62930344 341.16943618 395.31469374 341.08012395 381 341 C381 336.68381834 383.13270348 335.07210341 386 332 C386.66 332 387.32 332 388 332 C388.66 330.68 389.32 329.36 390 328 C390.66 328 391.32 328 392 328 C392.37318359 327.13375 392.37318359 327.13375 392.75390625 326.25 C394.17603049 323.68215183 395.81623509 322.02250956 397.9375 320 C400.04313532 317.98488732 401.91791777 316.11337977 403.62890625 313.75 C404.30759766 312.88375 404.30759766 312.88375 405 312 C405.66 312 406.32 312 407 312 C407.40641724 311.1035376 407.40641724 311.1035376 407.82104492 310.18896484 C408.98485229 308.02812475 410.10949201 306.67156393 411.86328125 304.9765625 C412.42080078 304.43 412.97832031 303.8834375 413.55273438 303.3203125 C414.13345703 302.76085937 414.71417969 302.20140625 415.3125 301.625 C418.64475126 298.39464091 421.89026944 295.21404533 424.79296875 291.5859375 C425.52128906 290.73257812 426.24960937 289.87921875 427 289 C427.66 289 428.32 289 429 289 C429.2578125 288.42765625 429.515625 287.8553125 429.78125 287.265625 C431.11365942 284.78871005 432.65056118 282.8658834 434.5 280.75 C435.1084375 280.04359375 435.716875 279.3371875 436.34375 278.609375 C438 277 438 277 440 277 C440.66 275.68 441.32 274.36 442 273 C442.66 273 443.32 273 444 273 C444.2578125 272.41347656 444.515625 271.82695313 444.78125 271.22265625 C446.09506472 268.82662877 447.5218401 267.31088448 449.5 265.4375 C451.72096733 263.32475777 453.27742417 261.58386374 455 259 C455.66 259 456.32 259 457 259 C457.26071289 258.42668945 457.52142578 257.85337891 457.79003906 257.26269531 C460.07526307 252.98919731 462.9936898 249.73516837 467 247 C471.11266231 246.01124147 475.03992461 246.1159372 479.25 246.25 C495.41458078 246.16825454 506.73377108 242.33740151 519.0625 231.5625 C522 229 522 229 524 229 C524.33 228.01 524.66 227.02 525 226 C525.66 226 526.32 226 527 226 C527.26296875 225.4328125 527.5259375 224.865625 527.796875 224.28125 C529.09021364 221.82894556 530.60123354 219.72806278 532.25 217.5 C544.32843179 200.41405169 548.2128949 182.62333533 545.3125 161.9375 C541.87950346 144.20818912 532.46570478 129.77365965 517.53515625 119.63671875 C504.15092132 110.99574119 490.67590558 110.46421093 475.14331055 110.49902344 C472.0444932 110.50000571 468.94807692 110.45806441 465.84960938 110.4140625 C463.86979679 110.40886155 461.88997567 110.40616721 459.91015625 110.40625 C458.98928726 110.38985474 458.06841827 110.37345947 457.11964417 110.35656738 C452.61795444 110.40517373 450.64540151 110.49357161 447.00561523 113.34960938 C445.61247041 115.19062948 444.28064978 117.07902534 443 119 C442.34 119 441.68 119 441 119 C440.77441406 119.55429687 440.54882812 120.10859375 440.31640625 120.6796875 C438.61133714 123.68506155 436.42200049 125.72987003 433.9375 128.125 C430.53546517 131.24105765 430.53546517 131.24105765 428 135 C427.34 135 426.68 135 426 135 C425.76667969 135.56203125 425.53335937 136.1240625 425.29296875 136.703125 C423.68062924 139.56734142 421.6806438 141.47252021 419.3125 143.75 C415.61823708 147.36487332 412.15339668 151.05174756 408.80078125 154.98046875 C405.9540374 158.17302096 402.88513414 161.13547967 399.8203125 164.1171875 C397.93616102 165.87753339 397.93616102 165.87753339 397 168 C396.34 168 395.68 168 395 168 C394.690625 168.804375 394.690625 168.804375 394.375 169.625 C392.46749574 172.91978009 389.95180616 175.59363628 387 178 C386.34 178 385.68 178 385 178 C385 178.66 385 179.32 385 180 C383.35648543 181.36176922 381.68477344 182.68962066 380 184 C377.71830265 186.22737122 375.48514077 188.47892287 373.3125 190.8125 C372 192 372 192 370 192 C370 192.66 370 193.32 370 194 C368.52685547 195.46728516 368.52685547 195.46728516 366.4921875 197.1640625 C362.24361682 200.77712327 358.17551939 204.54271552 354.125 208.375 C348.81606011 213.37822499 343.47508146 218.32890507 338.015625 223.16796875 C336.58066275 224.47222707 335.19963117 225.83688201 333.859375 227.23828125 C332 229 332 229 330 229 C329.7525 229.61875 329.505 230.2375 329.25 230.875 C327.79371361 233.35068687 326.62187494 233.95125002 324 235 C324 235.66 324 236.32 324 237 C322.56640625 238.41015625 322.56640625 238.41015625 320.5625 240.0625 C316.41038212 243.57070655 312.64192767 247.35450405 308.8828125 251.27734375 C307 253 307 253 305 253 C304.7525 253.61875 304.505 254.2375 304.25 254.875 C302.79371361 257.35068687 301.62187494 257.95125002 299 259 C299 259.66 299 260.32 299 261 C297.61474609 262.35961914 297.61474609 262.35961914 295.6484375 263.97265625 C289.34407172 269.33095039 283.67185624 275.31872226 277.89453125 281.23242188 C277.03472656 282.10318359 276.17492187 282.97394531 275.2890625 283.87109375 C274.12431396 285.06109985 274.12431396 285.06109985 272.93603516 286.27514648 C271 288 271 288 269 288 C268.34 289.32 267.68 290.64 267 292 C266.34 292 265.68 292 265 292 C265 292.66 265 293.32 265 294 C263.35648543 295.36176922 261.68477344 296.68962066 260 298 C257.71057906 300.2405365 255.46739917 302.52347521 253.22436523 304.81030273 C251.25692941 306.81419567 249.2848113 308.81340658 247.3125 310.8125 C246.63638672 311.50537109 245.96027344 312.19824219 245.26367188 312.91210938 C244.61591797 313.56630859 243.96816406 314.22050781 243.30078125 314.89453125 C242.71466064 315.49112549 242.12854004 316.08771973 241.5246582 316.70239258 C240 318 240 318 238 318 C237.78601563 318.55171875 237.57203125 319.1034375 237.3515625 319.671875 C235.546489 322.78119236 233.05199936 324.91272137 230.375 327.25 C229.859375 327.70890625 229.34375 328.1678125 228.8125 328.640625 C227.5465398 329.76592296 226.27392058 330.88372177 225 332 C223.35 331.34 221.7 330.68 220 330 C220 329.34 220 328.68 220 328 C219.45730469 327.77699219 218.91460938 327.55398438 218.35546875 327.32421875 C215.25979421 325.58386441 212.86341053 323.24697724 210.3125 320.8125 C205.91983004 316.68336314 201.43498736 312.88459189 196.546875 309.33984375 C195.78117187 308.67662109 195.78117187 308.67662109 195 308 C195 307.34 195 306.68 195 306 C194.443125 305.7525 193.88625 305.505 193.3125 305.25 C190.57589087 303.77075182 188.32349131 302.06532561 186 300 C186 299.34 186 298.68 186 298 C185.41476562 297.74347656 184.82953125 297.48695313 184.2265625 297.22265625 C181.80765392 295.89437838 180.26801128 294.43475199 178.375 292.4375 C175.95478041 289.85984611 175.95478041 289.85984611 173 288 C173 287.34 173 286.68 173 286 C172.44828125 285.76667969 171.8965625 285.53335937 171.328125 285.29296875 C168.38744733 283.65980716 166.20922749 281.60660793 163.75 279.3125 C160.51184489 276.31520384 157.27071448 273.32945391 153.9375 270.4375 C150.92926472 267.82298058 147.95869751 265.17048344 145 262.5 C137.17508263 255.38622081 137.17508263 255.38622081 129 248.6875 C128.34 248.130625 127.68 247.57375 127 247 C127 246.34 127 245.68 127 245 C126.443125 244.7525 125.88625 244.505 125.3125 244.25 C122.57589087 242.77075182 120.32349131 241.06532561 118 239 C118 238.34 118 237.68 118 237 C117.443125 236.7525 116.88625 236.505 116.3125 236.25 C113.57589087 234.77075182 111.32349131 233.06532561 109 231 C109 230.34 109 229.68 109 229 C107.02 228.01 107.02 228.01 105 227 C100.05 222.545 100.05 222.545 95 218 C94.67 333.5 94.34 449 94 568 C62.98 568 31.96 568 0 568 C0 380.56 0 193.12 0 0 Z " fill="#323940" transform="translate(322,317)"/>
<path d="M0 0 C2.02878584 0.01493473 4.05760069 0.02631593 6.08642578 0.03430176 C11.4070913 0.06473883 16.72598892 0.14322913 22.04595947 0.23193359 C27.48221931 0.31400721 32.91876694 0.35035914 38.35546875 0.390625 C49.0085861 0.47623156 59.66039562 0.61263629 70.3125 0.78125 C69.9825 2.10125 69.6525 3.42125 69.3125 4.78125 C68.6525 4.78125 67.9925 4.78125 67.3125 4.78125 C66.9721875 5.585625 66.9721875 5.585625 66.625 6.40625 C64.85679911 9.60585161 62.77579797 12.07162223 60.3125 14.78125 C59.6525 14.78125 58.9925 14.78125 58.3125 14.78125 C58.0546875 15.36777344 57.796875 15.95429687 57.53125 16.55859375 C56.21743528 18.95462123 54.7906599 20.47036552 52.8125 22.34375 C50.59153267 24.45649223 49.03507583 26.19738626 47.3125 28.78125 C46.6525 28.78125 45.9925 28.78125 45.3125 28.78125 C44.94125 29.62429688 44.94125 29.62429688 44.5625 30.484375 C43.09975133 33.17217569 41.34445127 35.24530482 39.3125 37.53125 C38.61125 38.33046875 37.91 39.1296875 37.1875 39.953125 C35.3125 41.78125 35.3125 41.78125 33.3125 41.78125 C32.96638672 42.62042969 32.96638672 42.62042969 32.61328125 43.4765625 C30.9702669 46.38760895 28.90671597 48.33974077 26.5 50.65625 C23.61091754 53.47446031 20.82071732 56.24273266 18.3125 59.40625 C17.3225 60.581875 17.3225 60.581875 16.3125 61.78125 C15.6525 61.78125 14.9925 61.78125 14.3125 61.78125 C13.92312256 62.65390503 13.92312256 62.65390503 13.52587891 63.54418945 C12.2242431 65.94396589 10.78706021 67.60788214 8.8984375 69.57421875 C8.21910156 70.28771484 7.53976562 71.00121094 6.83984375 71.73632812 C5.77443359 72.84137695 5.77443359 72.84137695 4.6875 73.96875 C2.58685968 76.16200767 0.49381204 78.35646771 -1.56079102 80.59301758 C-3.6875 82.78125 -3.6875 82.78125 -5.98413086 84.5847168 C-10.0324694 88.08318699 -11.83246042 91.03044506 -12.23144531 96.35961914 C-12.41957046 102.95993374 -12.16262556 109.55586101 -11.86987305 116.1496582 C-11.18948751 133.49730408 -11.18948751 133.49730408 -14.97241211 138.18457031 C-17.74727236 140.72171949 -20.5170936 142.7698515 -23.6875 144.78125 C-24.81596098 145.69776578 -25.93324217 146.62866685 -27.02734375 147.5859375 C-27.88457031 148.26914062 -28.74179687 148.95234375 -29.625 149.65625 C-32.18768584 151.70186962 -34.59438341 153.6853117 -36.87890625 156.0390625 C-38.6875 157.78125 -38.6875 157.78125 -40.6875 157.78125 C-40.6875 158.44125 -40.6875 159.10125 -40.6875 159.78125 C-42.1484375 161.2890625 -42.1484375 161.2890625 -44.0625 162.90625 C-44.68898438 163.44507813 -45.31546875 163.98390625 -45.9609375 164.5390625 C-47.6875 165.78125 -47.6875 165.78125 -49.6875 165.78125 C-50.3475 167.10125 -51.0075 168.42125 -51.6875 169.78125 C-52.3475 169.78125 -53.0075 169.78125 -53.6875 169.78125 C-53.6875 170.44125 -53.6875 171.10125 -53.6875 171.78125 C-55.1484375 173.2890625 -55.1484375 173.2890625 -57.0625 174.90625 C-57.68898438 175.44507813 -58.31546875 175.98390625 -58.9609375 176.5390625 C-60.6875 177.78125 -60.6875 177.78125 -62.6875 177.78125 C-62.6875 178.44125 -62.6875 179.10125 -62.6875 179.78125 C-64.1484375 181.2890625 -64.1484375 181.2890625 -66.0625 182.90625 C-66.68898438 183.44507813 -67.31546875 183.98390625 -67.9609375 184.5390625 C-69.6875 185.78125 -69.6875 185.78125 -71.6875 185.78125 C-71.6875 186.44125 -71.6875 187.10125 -71.6875 187.78125 C-73.1484375 189.2890625 -73.1484375 189.2890625 -75.0625 190.90625 C-75.68898438 191.44507813 -76.31546875 191.98390625 -76.9609375 192.5390625 C-78.6875 193.78125 -78.6875 193.78125 -80.6875 193.78125 C-80.6875 194.44125 -80.6875 195.10125 -80.6875 195.78125 C-82.015625 197.12109375 -82.015625 197.12109375 -83.9375 198.71875 C-86.60385706 200.97086944 -89.21448299 203.25479797 -91.75 205.65234375 C-92.54035645 206.3959314 -92.54035645 206.3959314 -93.34667969 207.15454102 C-94.39402583 208.14321905 -95.43649962 209.13708832 -96.47363281 210.13647461 C-99.17300529 212.66702495 -101.07192971 214.07184152 -104.6875 214.78125 C-104.80427007 198.03088038 -104.89245689 181.28064265 -104.94656086 164.52996445 C-104.97234936 156.75242258 -105.00751179 148.97513352 -105.06469727 141.19775391 C-105.11451299 134.41945264 -105.14678633 127.64133443 -105.15794247 120.8628552 C-105.16446451 117.27315439 -105.17980526 113.68397731 -105.21615028 110.09444427 C-105.25638365 106.08844207 -105.25745065 102.08335196 -105.25512695 98.07714844 C-105.27310333 96.88528427 -105.29107971 95.6934201 -105.30960083 94.46543884 C-105.25881198 86.40429944 -105.25881198 86.40429944 -102.24650574 83.11920166 C-101.40203384 82.67767761 -100.55756195 82.23615356 -99.6875 81.78125 C-98.19048455 80.13809845 -98.19048455 80.13809845 -97 78.53125 C-95.8553125 77.17 -95.8553125 77.17 -94.6875 75.78125 C-94.0275 75.78125 -93.3675 75.78125 -92.6875 75.78125 C-92.6875 75.12125 -92.6875 74.46125 -92.6875 73.78125 C-90.8125 71.65625 -90.8125 71.65625 -88.6875 69.78125 C-88.0275 69.78125 -87.3675 69.78125 -86.6875 69.78125 C-86.4706958 69.23847412 -86.2538916 68.69569824 -86.03051758 68.13647461 C-84.2278469 64.97516503 -81.77631634 62.6236778 -79.19921875 60.09765625 C-78.65900589 59.56027328 -78.11879303 59.02289032 -77.56221008 58.46922302 C-75.83779294 56.75596454 -74.10656371 55.04978224 -72.375 53.34375 C-71.22154448 52.20033438 -70.06854477 51.05645875 -68.91601562 49.91210938 C-66.78626287 47.79864279 -64.65385165 45.68793926 -62.51831055 43.58032227 C-59.89856504 40.98994863 -57.29231154 38.38661925 -54.6875 35.78125 C-53.90375 35.018125 -53.12 34.255 -52.3125 33.46875 C-49.46259571 30.55099084 -46.84894181 27.4871037 -44.23828125 24.35546875 C-43.47064453 23.57623047 -43.47064453 23.57623047 -42.6875 22.78125 C-42.0275 22.78125 -41.3675 22.78125 -40.6875 22.78125 C-40.44 22.1625 -40.1925 21.54375 -39.9375 20.90625 C-38.45009631 18.37766373 -37.25071991 18.06285996 -34.6875 16.78125 C-33.41945434 14.7476552 -33.41945434 14.7476552 -32.6875 12.78125 C-32.0275 12.78125 -31.3675 12.78125 -30.6875 12.78125 C-30.41591064 12.20789917 -30.14432129 11.63454834 -29.86450195 11.04382324 C-23.1798383 -1.80623285 -12.88366207 -0.27842381 0 0 Z " fill="#44CD94" transform="translate(689.6875,563.21875)"/>
<path d="M0 0 C30.03 0 60.06 0 91 0 C90.67 1.32 90.34 2.64 90 4 C89.505 3.01 89.505 3.01 89 2 C59.63 1.67 30.26 1.34 0 1 C0 0.67 0 0.34 0 0 Z " fill="#99E8C3" transform="translate(669,564)"/>
<path d="M0 0 C0.99 0.66 1.98 1.32 3 2 C2.01 2.33 1.02 2.66 0 3 C-0.33 3.99 -0.66 4.98 -1 6 C-2.6015625 7.61328125 -2.6015625 7.61328125 -4.625 9.3125 C-5.33914063 9.91835938 -6.05328125 10.52421875 -6.7890625 11.1484375 C-7.51867187 11.75945312 -8.24828125 12.37046875 -9 13 C-10.33445216 14.14453013 -11.66788527 15.29025017 -13 16.4375 C-13.99 17.283125 -14.98 18.12875 -16 19 C-16 15 -16 15 -13.26171875 12.08984375 C-12.08020902 11.02794693 -10.88831021 9.9775216 -9.6875 8.9375 C-8.50361338 7.88444375 -7.32001052 6.83106838 -6.13671875 5.77734375 C-5.60780029 5.31577881 -5.07888184 4.85421387 -4.53393555 4.37866211 C-2.96628673 2.96969937 -1.47739678 1.50284529 0 0 Z " fill="#51575D" transform="translate(697,367)"/>
<path d="M0 0 C0.66 0.66 1.32 1.32 2 2 C0.13720481 3.97130753 -1.73876274 5.92633408 -3.625 7.875 C-4.40810547 8.70837891 -4.40810547 8.70837891 -5.20703125 9.55859375 C-8.56732904 13.00186185 -11.18432091 14.8575416 -16 16 C-14.625 14 -14.625 14 -13 12 C-12.34 12 -11.68 12 -11 12 C-11 11.34 -11 10.68 -11 10 C-9.35546875 8.37890625 -9.35546875 8.37890625 -7.1875 6.5625 C-4.68897282 4.45536324 -2.2757944 2.34758602 0 0 Z " fill="#4F555A" transform="translate(586,474)"/>
<path d="M0 0 C0.66 0.33 1.32 0.66 2 1 C1.02615879 2.35255724 0.0161846 3.67896002 -1 5 C-1.44859375 5.59039063 -1.8971875 6.18078125 -2.359375 6.7890625 C-6.35044751 11.7881894 -6.35044751 11.7881894 -9.875 12.9375 C-10.57625 12.958125 -11.2775 12.97875 -12 13 C-11.67 12.34 -11.34 11.68 -11 11 C-10.34 11 -9.68 11 -9 11 C-8.61714844 10.12601563 -8.61714844 10.12601563 -8.2265625 9.234375 C-6.88258913 6.78611777 -5.38189704 5.18256752 -3.375 3.25 C-2.74335937 2.63640625 -2.11171875 2.0228125 -1.4609375 1.390625 C-0.73777344 0.70226562 -0.73777344 0.70226562 0 0 Z " fill="#6ADAAD" transform="translate(668,565)"/>
<path d="M0 0 C0.33 0.66 0.66 1.32 1 2 C-0.73422987 6.55696571 -4.09820506 9.25339487 -8 12 C-11.4375 13.375 -11.4375 13.375 -14 14 C-13.34 13.01 -12.68 12.02 -12 11 C-11.34 11 -10.68 11 -10 11 C-10 10.34 -10 9.68 -10 9 C-8.3203125 7.34375 -8.3203125 7.34375 -6.125 5.5 C-4.00964496 3.71066742 -1.95980876 1.95980876 0 0 Z " fill="#4E555B" transform="translate(561,498)"/>
<path d="M0 0 C0.33 0.66 0.66 1.32 1 2 C-0.97083311 6.05115696 -3.62106236 9.04342956 -7 12 C-7.99 12 -8.98 12 -10 12 C-9.67 11.01 -9.34 10.02 -9 9 C-8.34 9 -7.68 9 -7 9 C-7 8.34 -7 7.68 -7 7 C-5.125 4.875 -5.125 4.875 -3 3 C-2.34 3 -1.68 3 -1 3 C-0.67 2.01 -0.34 1.02 0 0 Z " fill="#6EDBAE" transform="translate(604,630)"/>
<path d="M0 0 C0 3 0 3 -2.40625 5.48046875 C-3.43005231 6.39125392 -4.46167034 7.29331192 -5.5 8.1875 C-6.02464844 8.65091797 -6.54929687 9.11433594 -7.08984375 9.59179688 C-8.38666224 10.735355 -9.69249867 11.86867174 -11 13 C-11.66 12.67 -12.32 12.34 -13 12 C-12.36191406 11.37351562 -11.72382812 10.74703125 -11.06640625 10.1015625 C-10.24011719 9.28429687 -9.41382813 8.46703125 -8.5625 7.625 C-7.73878906 6.81289063 -6.91507813 6.00078125 -6.06640625 5.1640625 C-3.96565328 3.17651485 -3.96565328 3.17651485 -3 1 C-2.01 0.67 -1.02 0.34 0 0 Z " fill="#4E5459" transform="translate(728,630)"/>
<path d="M0 0 C0.66 0.33 1.32 0.66 2 1 C0.92338719 2.4425402 -0.16160103 3.87883161 -1.25 5.3125 C-1.85328125 6.11300781 -2.4565625 6.91351562 -3.078125 7.73828125 C-4.90270136 9.88549612 -6.68297046 11.41601299 -9 13 C-8.1875 10.0625 -8.1875 10.0625 -7 7 C-6.01 6.67 -5.02 6.34 -4 6 C-2.90833725 4.06669397 -2.90833725 4.06669397 -2 2 C-1.34 1.34 -0.68 0.68 0 0 Z " fill="#67DAAD" transform="translate(653,580)"/>
<path d="M0 0 C0 3.86474861 -1.34492416 6.20494458 -3 9.6875 C-3.556875 10.86699219 -4.11375 12.04648437 -4.6875 13.26171875 C-5.120625 14.16535156 -5.55375 15.06898438 -6 16 C-6.66 15.01 -7.32 14.02 -8 13 C-6.68 10.36 -5.36 7.72 -4 5 C-3.34 5 -2.68 5 -2 5 C-2 3.68 -2 2.36 -2 1 C-1.34 0.67 -0.68 0.34 0 0 Z " fill="#555A5F" transform="translate(952,557)"/>
<path d="M0 0 C0.66 0.99 1.32 1.98 2 3 C-0.31 5.31 -2.62 7.62 -5 10 C-5.66 9.01 -6.32 8.02 -7 7 C-4.69 4.69 -2.38 2.38 0 0 Z " fill="#4F555B" transform="translate(569,490)"/>
<path d="M0 0 C-1.3628389 4.08851671 -3.52386972 5.54626098 -7 8 C-9.375 7.8125 -9.375 7.8125 -11 7 C-10.01 6.67 -9.02 6.34 -8 6 C-8 5.34 -8 4.68 -8 4 C-3.64705882 0 -3.64705882 0 0 0 Z " fill="#53595F" transform="translate(722,346)"/>
<path d="M0 0 C0.33 0.99 0.66 1.98 1 3 C0.34 3 -0.32 3 -1 3 C-1.20625 3.5775 -1.4125 4.155 -1.625 4.75 C-3.49750888 7.81410544 -5.96958519 9.15539968 -9 11 C-9.33 10.34 -9.66 9.68 -10 9 C-9.278125 8.443125 -8.55625 7.88625 -7.8125 7.3125 C-5.02542701 5.02090666 -2.51358472 2.58540143 0 0 Z " fill="#61D7A7" transform="translate(641,593)"/>
<path d="M0 0 C0.99 0.33 1.98 0.66 3 1 C0 4 -3 7 -6 10 C-6.33 9.01 -6.66 8.02 -7 7 C-2.88888889 1.44444444 -2.88888889 1.44444444 0 0 Z " fill="#52D49F" transform="translate(593,642)"/>
<path d="M0 0 C0.721875 0.268125 1.44375 0.53625 2.1875 0.8125 C1.56875 0.895 0.95 0.9775 0.3125 1.0625 C-1.97919871 1.60576091 -1.97919871 1.60576091 -2.875 3.75 C-3.184375 4.430625 -3.49375 5.11125 -3.8125 5.8125 C-4.8025 6.4725 -5.7925 7.1325 -6.8125 7.8125 C-7.1425 6.8225 -7.4725 5.8325 -7.8125 4.8125 C-3.50480769 -0.23365385 -3.50480769 -0.23365385 0 0 Z " fill="#464D55" transform="translate(790.8125,565.1875)"/>
<path d="M0 0 C1.65 0.99 3.3 1.98 5 3 C4.01 3.33 3.02 3.66 2 4 C1.67 8.62 1.34 13.24 1 18 C0.67 18 0.34 18 0 18 C0 12.06 0 6.12 0 0 Z " fill="#51575D" transform="translate(324,318)"/>
<path d="M0 0 C0.66 0.99 1.32 1.98 2 3 C1.01 3.66 0.02 4.32 -1 5 C-1.45375 5.515625 -1.9075 6.03125 -2.375 6.5625 C-4.4748289 8.42004095 -6.2637335 8.63023426 -9 9 C-6.19195732 6.03595495 -3.81684226 3.55500981 0 2 C0 1.34 0 0.68 0 0 Z " fill="#61666B" transform="translate(849,771)"/>
<path d="M0 0 C-1.5830577 4.2742558 -4.50568404 6.26531794 -8 9 C-8 6 -8 6 -6.7578125 4.39453125 C-5.94957031 3.61142578 -5.94957031 3.61142578 -5.125 2.8125 C-4.59132813 2.28269531 -4.05765625 1.75289062 -3.5078125 1.20703125 C-2 0 -2 0 0 0 Z " fill="#4C5159" transform="translate(607,589)"/>
<path d="M0 0 C0.33 0.99 0.66 1.98 1 3 C-3.82142857 8.22321429 -3.82142857 8.22321429 -8 9 C-7.04270084 7.87411986 -6.08412105 6.7493285 -5.125 5.625 C-4.59132813 4.99851562 -4.05765625 4.37203125 -3.5078125 3.7265625 C-2.38567993 2.44163349 -1.20628025 1.20628025 0 0 Z " fill="#4F555B" transform="translate(775,579)"/>
<path d="M0 0 C1.875 0.625 1.875 0.625 4 2 C5.25 5.125 5.25 5.125 6 8 C5.01 7.67 4.02 7.34 3 7 C2.3125 4.9375 2.3125 4.9375 2 3 C1.34 3 0.68 3 0 3 C0 2.01 0 1.02 0 0 Z " fill="#4E535E" transform="translate(941,637)"/>
<path d="M0 0 C0 3.16880694 -0.2058242 4.43689172 -2 7 C-4.625 7.75 -4.625 7.75 -7 8 C-6.02133662 6.85373678 -5.04205413 5.70800212 -4.0625 4.5625 C-3.51722656 3.92441406 -2.97195313 3.28632812 -2.41015625 2.62890625 C-1.63204305 1.73008851 -0.84063472 0.84063472 0 0 Z " fill="#686C72" transform="translate(738,618)"/>
<path d="M0 0 C0.66 0.99 1.32 1.98 2 3 C0.35 4.32 -1.3 5.64 -3 7 C-3 4 -3 4 -2 2 C-1.34 2 -0.68 2 0 2 C0 1.34 0 0.68 0 0 Z " fill="#4B5157" transform="translate(710,647)"/>
<path d="M0 0 C-1.39332574 3.36720387 -2.9789286 4.9859524 -6 7 C-6 4 -6 4 -4.125 1.8125 C-2 0 -2 0 0 0 Z " fill="#54595E" transform="translate(573,622)"/>
<path d="M0 0 C0 3 0 3 -1.3125 4.38671875 C-2.875 5.59114583 -4.4375 6.79557292 -6 8 C-5.690625 7.401875 -5.38125 6.80375 -5.0625 6.1875 C-3.89790296 3.91043228 -3.89790296 3.91043228 -3 1 C-2.01 0.67 -1.02 0.34 0 0 Z " fill="#4AD29A" transform="translate(658,577)"/>
<path d="M0 0 C3.65316671 1.24976756 4.78065836 1.67098753 7 5 C3.47967572 5 2.5614657 4.29648649 0 2 C0 1.34 0 0.68 0 0 Z " fill="#565B62" transform="translate(900,358)"/>
</svg>
